# xmcd CD database file
# Copyright (C) 1997 Ti Kan
#
# Track frame offsets:
#  183
#  13833
#  25940
#  37895
#  47940
#  64020
#  78333
#  91958
#  102983
#  117245
#  127908
#
# Disc length: 1882 seconds
#
# Revision: 1
# Processed by: cddbd v1.4b41PL1 Copyright (c) Steve Scherf et al.
# Submitted via: CDWizzard Release:4.32
#
DISCID=8507580b
DTITLE=Patti Page - Patti Page's Greatest Hits
DYEAR=1900
DGENRE=
TTITLE0=Mockin' Bird Hill
TTITLE1=(How Much Is That) Doggi In The Window
TTITLE2=Cross Over The Bridge
TTITLE3=Detour
TTITLE4=Mister And Mississippi
TTITLE5=Old Cape Cod
TTITLE6=I Went to Your Wedding
TTITLE7=Tennessee Waltz
TTITLE8=With My Eyes Wide Open I'm Dreaming
TTITLE9=Changing Partners
TTITLE10=Allegheny Moon
EXTD=
EXTT0=
EXTT1=
EXTT2=
EXTT3=
EXTT4=
EXTT5=
EXTT6=
EXTT7=
EXTT8=
EXTT9=
EXTT10=
PLAYORDER=
